<?xml version="1.0" encoding="UTF-8" standalone="no"?>
<svg
   xmlns:dc="http://purl.org/dc/elements/1.1/"
   xmlns:cc="http://creativecommons.org/ns#"
   xmlns:rdf="http://www.w3.org/1999/02/22-rdf-syntax-ns#"
   xmlns:svg="http://www.w3.org/2000/svg"
   xmlns="http://www.w3.org/2000/svg"
   xmlns:sodipodi="http://sodipodi.sourceforge.net/DTD/sodipodi-0.dtd"
   xmlns:inkscape="http://www.inkscape.org/namespaces/inkscape"
   width="24"
   height="18"
   viewBox="0 0 24 18"
   version="1.1"
   id="svg8"
   sodipodi:docname="baseline-contact_mail-24px.svg"
   inkscape:version="0.92.3 (unknown)">
  <sodipodi:namedview
     pagecolor="#ffffff"
     bordercolor="#666666"
     borderopacity="1"
     objecttolerance="10"
     gridtolerance="10"
     guidetolerance="10"
     inkscape:pageopacity="0"
     inkscape:pageshadow="2"
     inkscape:window-width="1303"
     inkscape:window-height="744"
     id="namedview10"
     showgrid="false"
     inkscape:zoom="9.8333333"
     inkscape:cx="12"
     inkscape:cy="9"
     inkscape:window-x="63"
     inkscape:window-y="24"
     inkscape:window-maximized="1"
     inkscape:current-layer="svg8" />
  <metadata
     id="metadata14">
    <rdf:RDF>
      <cc:Work
         rdf:about="">
        <dc:format>image/svg+xml</dc:format>
        <dc:type
           rdf:resource="http://purl.org/dc/dcmitype/StillImage" />
      </cc:Work>
    </rdf:RDF>
  </metadata>
  <defs
     id="defs12" />
  <path
     style="fill:none"
     inkscape:connector-curvature="0"
     id="path2"
     d="M 0,-3 H 24 V 21 H 0 Z" />
  <path
     style="fill:#6a1b9a;opacity:1"
     inkscape:connector-curvature="0"
     id="path4"
     d="M 21,5 V 4 L 18,6 15,4 v 1 l 3,2 z M 22,0 H 2 C 0.9,0 0,0.9 0,2 v 14 c 0,1.1 0.9,2 2,2 h 20 c 1.1,0 1.99,-0.9 1.99,-2 L 24,2 C 24,0.9 23.1,0 22,0 Z M 8,3 C 9.66,3 11,4.34 11,6 11,7.66 9.66,9 8,9 6.34,9 5,7.66 5,6 5,4.34 6.34,3 8,3 Z m 6,12 H 2 v -1 c 0,-2 4,-3.1 6,-3.1 2,0 6,1.1 6,3.1 z M 22,9 H 14 V 3 h 8 z" />
  <path
     style="fill:none"
     inkscape:connector-curvature="0"
     id="path6"
     d="M 0,-3 H 24 V 21 H 0 Z" />
</svg>
