<?xml version="1.0" encoding="UTF-8" standalone="no"?>
<svg
   xmlns:dc="http://purl.org/dc/elements/1.1/"
   xmlns:cc="http://creativecommons.org/ns#"
   xmlns:rdf="http://www.w3.org/1999/02/22-rdf-syntax-ns#"
   xmlns:svg="http://www.w3.org/2000/svg"
   xmlns="http://www.w3.org/2000/svg"
   xmlns:sodipodi="http://sodipodi.sourceforge.net/DTD/sodipodi-0.dtd"
   xmlns:inkscape="http://www.inkscape.org/namespaces/inkscape"
   width="20"
   height="18"
   viewBox="0 0 20 18"
   version="1.1"
   id="svg6"
   sodipodi:docname="baseline-developer_board-24px.svg"
   inkscape:version="0.92.3 (unknown)">
  <sodipodi:namedview
     pagecolor="#ffffff"
     bordercolor="#666666"
     borderopacity="1"
     objecttolerance="10"
     gridtolerance="10"
     guidetolerance="10"
     inkscape:pageopacity="0"
     inkscape:pageshadow="2"
     inkscape:window-width="1303"
     inkscape:window-height="744"
     id="namedview8"
     showgrid="false"
     inkscape:snap-others="false"
     inkscape:snap-bbox="false"
     inkscape:zoom="9.8333333"
     inkscape:cx="9.7966102"
     inkscape:cy="9"
     inkscape:window-x="63"
     inkscape:window-y="24"
     inkscape:window-maximized="1"
     inkscape:current-layer="svg6" />
  <metadata
     id="metadata12">
    <rdf:RDF>
      <cc:Work
         rdf:about="">
        <dc:format>image/svg+xml</dc:format>
        <dc:type
           rdf:resource="http://purl.org/dc/dcmitype/StillImage" />
        <dc:title />
      </cc:Work>
    </rdf:RDF>
  </metadata>
  <defs
     id="defs10" />
  <g
     transform="translate(-2.2033898,-3)"
     id="g16">
    <path
       style="fill:#6a1b9a;opacity:1"
       d="M 22.20339,9 V 7 h -2 V 5 c 0,-1.1 -0.9,-2 -2,-2 H 4.2033898 c -1.1,0 -2,0.9 -2,2 v 14 c 0,1.1 0.9,2 2,2 H 18.20339 c 1.1,0 2,-0.9 2,-2 v -2 h 2 v -2 h -2 v -2 h 2 v -2 h -2 V 9 Z m -4,10 H 4.2033898 V 5 H 18.20339 Z M 6.2033898,13 H 11.20339 v 4 H 6.2033898 Z M 12.20339,7 h 4 v 3 h -4 z M 6.2033898,7 H 11.20339 v 5 H 6.2033898 Z m 6.0000002,4 h 4 v 6 h -4 z"
       id="path2"
       inkscape:connector-curvature="0" />
    <path
       d="M 0.20338983,0 H 24.20339 V 24 H 0.20338983 Z m 0,0 H 24.20339 V 24 H 0.20338983 Z"
       id="path4"
       inkscape:connector-curvature="0"
       style="fill:none;opacity:1" />
  </g>
</svg>
